<svg width="180" height="48" viewBox="0 0 180 48" fill="none" xmlns="http://www.w3.org/2000/svg">
<path d="M62.9886 35.5631V12.9847H65.9986V35.5631H62.9886ZM74.3417 12.9847H77.9152L71.0489 21.7342C70.1398 23.0203 69.8549 23.301 69.8549 23.8351C69.8549 24.1807 70.2634 24.8699 71.0489 25.9046L78.5436 35.5631H74.9994L68.2567 26.7509C67.2533 25.3391 66.9412 24.7442 66.9412 23.7723C66.9412 22.8003 67.224 22.2976 68.2567 20.823L74.3417 12.9847Z" fill="#2E3192"/>
<path d="M82.3621 11.3551C83.3969 11.3551 84.2117 12.2013 84.2117 13.2047C84.2117 14.208 83.3969 15.0229 82.3621 15.0229C81.3588 15.0229 80.544 14.208 80.544 13.2047C80.544 12.1699 81.3588 11.3551 82.3621 11.3551ZM80.921 35.5631V16.841H83.8368V35.5631H80.921Z" fill="#2E3192"/>
<path d="M101.677 11.8264V29.1975C101.677 33.6214 99.1676 35.8439 94.5594 35.8439C89.6683 35.8439 87.4103 33.7136 87.4103 29.1975V23.3345C87.4103 18.8205 89.5741 16.5604 93.9331 16.5604C96.3775 16.5604 97.9779 17.3124 98.7613 18.8184V11.8243H101.677V11.8264ZM90.3575 29.1347C90.3575 31.8933 91.2666 33.0852 94.53 33.0852C97.7893 33.0852 98.7634 31.8619 98.7634 29.1347V23.2696C98.7634 20.5402 97.76 19.3505 94.53 19.3505C91.2686 19.3505 90.3575 20.5423 90.3575 23.2696V29.1347Z" fill="#2E3192"/>
<path d="M104.871 32.176C106.941 32.8044 108.948 33.1165 110.891 33.1165C113.495 33.1165 114.465 32.6767 114.465 31.3298C114.465 30.3265 113.996 29.918 112.584 28.9147L108.162 25.9046C106.313 24.6499 105.121 23.301 105.121 21.0743C105.121 18.0329 107.004 16.5582 111.426 16.5582C113.212 16.5582 114.938 16.8724 116.631 17.4987V20.2574C114.999 19.5997 113.244 19.2855 111.361 19.2855C108.885 19.2855 108.007 19.7882 108.007 21.0408C108.007 22.0777 108.51 22.5783 109.668 23.4245L114.027 26.4346C116.252 27.9406 117.32 29.1011 117.32 31.2649C117.32 34.3985 115.345 35.8417 110.672 35.8417C108.665 35.8417 106.719 35.5296 104.871 34.9347V32.176Z" fill="#2E3192"/>
<path d="M131.989 25.1526V35.5631H128.979V12.9847H131.989V22.2976H140.862V12.9847H143.903V35.5631H140.862V25.1526H131.989Z" fill="#2E3192"/>
<path d="M150.766 16.8431V29.8238C150.766 32.0818 151.706 33.0852 154.938 33.0852C158.17 33.0852 159.046 32.0818 159.046 29.8238V16.8431H161.993V29.8238C161.993 33.8372 159.923 35.8438 154.938 35.8438C150.202 35.8438 147.82 33.8372 147.82 29.8238V16.8431H150.766Z" fill="#2E3192"/>
<path d="M165.47 11.8264H168.417V18.8205C169.14 17.3144 170.738 16.5624 173.248 16.5624C177.607 16.5624 179.77 18.8205 179.77 23.3366V29.1996C179.77 33.7157 177.514 35.8459 172.621 35.8459C167.982 35.8459 165.472 33.6214 165.472 29.1996V11.8264H165.47ZM176.819 23.2696C176.819 20.5402 175.878 19.3504 172.648 19.3504C169.356 19.3504 168.415 20.5109 168.415 23.2696V29.1346C168.415 31.8619 169.389 33.0852 172.648 33.0852C175.878 33.0852 176.819 31.8619 176.819 29.1346V23.2696Z" fill="#2E3192"/>
<path d="M38.215 12.1281C31.3571 18.9839 20.2407 18.9839 13.3827 12.1281L7.237 5.98236C6.36562 5.11098 6.22318 3.69918 7.00659 2.7482C7.9052 1.65897 9.52228 1.60241 10.4963 2.57643L16.2922 8.37237C21.5415 13.6237 30.0563 13.6237 35.3055 8.37237L41.1014 2.57643C42.0755 1.60241 43.6925 1.65897 44.5912 2.7482C45.3746 3.69918 45.2321 5.11098 44.3628 5.98236L38.215 12.1281Z" fill="#CC69FF"/>
<path d="M30.0416 4.2417C30.0416 6.58563 28.1418 8.48339 25.7999 8.48339C23.4581 8.48339 21.5582 6.58353 21.5582 4.2417C21.5582 1.89986 23.4581 0 25.7999 0C28.1418 0 30.0416 1.89986 30.0416 4.2417Z" fill="#CC69FF"/>
<path d="M11.464 15.4523C20.8314 17.9618 26.3885 27.5888 23.8791 36.9583L21.6294 45.3516C21.3111 46.5414 20.1569 47.3708 18.9441 47.1677C17.5511 46.9352 16.6923 45.5631 17.0505 44.233L19.1724 36.3173C21.0932 29.1431 16.8368 21.7719 9.66472 19.849L1.74688 17.7271C0.416771 17.3711 -0.343592 15.9425 0.152843 14.6187C0.584344 13.4645 1.87885 12.8822 3.06862 13.2006L11.464 15.4523Z" fill="#559FFF"/>
<path d="M8.72002 26.4744C10.7477 25.3035 13.3429 25.9968 14.5139 28.0265C15.6848 30.0563 14.9894 32.6516 12.9617 33.8225C10.9341 34.9934 8.33879 34.298 7.16788 32.2703C5.99696 30.2406 6.69239 27.6474 8.72002 26.4744Z" fill="#559FFF"/>
<path d="M27.7186 36.9582C25.2092 27.5888 30.7664 17.9617 40.1337 15.4523L48.5291 13.2027C49.7189 12.8843 51.0134 13.4666 51.4449 14.6207C51.9392 15.9446 51.181 17.3731 49.8488 17.7292L41.9309 19.8511C34.7588 21.7719 30.5024 29.1451 32.4253 36.3194L34.5451 44.2351C34.9012 45.5652 34.0424 46.9372 32.6516 47.1697C31.4367 47.3729 30.2846 46.5434 29.9662 45.3537L27.7186 36.9582Z" fill="#FFA122"/>
<path d="M38.636 33.8225C36.6063 32.6516 35.9109 30.0563 37.0839 28.0265C38.2548 25.9968 40.8501 25.3035 42.8798 26.4744C44.9074 27.6474 45.6029 30.2406 44.4319 32.2682C43.2589 34.298 40.6636 34.9934 38.636 33.8225Z" fill="#FFA122"/>
</svg>
